<svg width="360" height="447.99999999999994" xmlns="http://www.w3.org/2000/svg">

 <g>
  <title>background</title>
  <rect fill="none" id="canvas_background" height="402" width="582" y="-1" x="-1"/>
 </g>
 <g>
  <g id="svg_11">
   <title fill="#ffffff" stroke="#ffffff">Layer 1</title>
   <path animation="shell_draw 2000ms ease-in-out 0ms forwards, shell_fill 1000ms linear 2000ms forwards" stroke-dashoffset="439" stroke-miterlimit="10" stroke-linejoin="round" stroke-linecap="round" stroke-width="5" stroke="#ffffff" fill="#ffffff" id="svg_3" d="m192.5,266.7c24.9,0 24.8,0 36.7,-21.1c6.2,-11 12.1,-22.2 19.2,-32.6c5.7,-8.2 4.1,-15.6 0,-22.9c-8.3,-14.8 -17.4,-29.1 -25.7,-43.9c-3.4,-6.1 -7.3,-9.3 -14.8,-9.1c-9.3,0.2 -46.6,0.2 -55.9,0c-7.5,-0.2 -11.4,3 -14.8,9.1c-8.3,14.8 -17.3,29.1 -25.7,43.9c-4.2,7.4 -5.7,14.7 0,22.9c7.2,10.3 13,21.6 19.2,32.6c11.9,21.1 11.8,21.2 36.7,21.1c3.9,0 7.8,0 11.7,0c0,0 1.7,0 1.7,0c3.9,0 7.8,0 11.7,0z" class="st0 shell_0"/>
   <path animation="shell_draw 2000ms ease-in-out 0ms forwards, shell_fill 1000ms linear 2000ms forwards" stroke-dashoffset="403" stroke-miterlimit="10" stroke-linejoin="round" stroke-linecap="round" stroke-width="5" stroke="#ffffff" fill="#ffffff" id="svg_5" d="m91.9,181.8c8.8,-16.7 18,-33.2 27.3,-49.6c2.6,-4.7 2.9,-8.6 0,-13.5c-11,-18.8 -21.8,-37.8 -32.4,-56.9c-2.8,-5.1 -5.2,-5.6 -10.1,-2.9c-20.4,11.1 -40.9,22 -61.7,32.7c-7.5,3.8 -10.9,9.3 -10,17.5c2.7,25.5 5.4,50.9 8.5,76.4c0.2,1.8 3.5,4.4 5.4,4.5c13,0.4 50.9,0.6 56.6,1.2c8,0.6 12.7,-2.5 16.4,-9.4z" class="st0 shell_1"/>
   <path animation="shell_draw 2000ms ease-in-out 0ms forwards, shell_fill 1000ms linear 2000ms forwards" stroke-dashoffset="401" stroke-miterlimit="10" stroke-linejoin="round" stroke-linecap="round" stroke-width="5" stroke="#ffffff" fill="#ffffff" id="svg_6" d="m139.3,107.8c2.8,5.1 6.5,6.3 11.8,6.2c4.8,-0.1 53,-0.1 57.8,0c5.3,0.1 9,-1.1 11.8,-6.2c10.6,-19.2 21.5,-38.1 32.5,-57c2.5,-4.2 2.4,-6.8 -2.2,-9.2c-21.1,-11 -42.2,-22.2 -63.2,-33.4c-2.7,-1.5 -5.2,-2.2 -7.8,-2.2l0,0l0,0l0,0l0,0c-2.6,0 -5.1,0.7 -7.8,2.1c-21,11.2 -42.1,22.4 -63.2,33.4c-4.7,2.4 -4.7,5 -2.2,9.2c11,18.9 21.9,37.9 32.5,57.1z" class="st0 shell_2"/>
   <path animation="shell_draw 2000ms ease-in-out 0ms forwards, shell_fill 1000ms linear 2000ms forwards" stroke-dashoffset="367" stroke-miterlimit="10" stroke-linejoin="round" stroke-linecap="round" stroke-width="5" stroke="#ffffff" fill="#ffffff" id="svg_7" d="m119.6,273.1c-9.3,-17.5 -19,-34.8 -28.9,-51.9c-1.7,-2.9 -5.5,-6.5 -8.5,-6.5c-20.1,-0.6 -40.3,-0.3 -61.1,-0.3c11.8,49 33.4,91.9 62.2,133.8c13.1,-22.8 25.4,-44.1 37.3,-65.6c1.2,-2.4 0.4,-6.9 -1,-9.5z" class="st0 shell_3"/>
   <path animation="shell_draw 2000ms ease-in-out 0ms forwards, shell_fill 1000ms linear 2000ms forwards" stroke-dashoffset="403" stroke-miterlimit="10" stroke-linejoin="round" stroke-linecap="round" stroke-width="5" stroke="#ffffff" fill="#ffffff" id="svg_8" d="m345,91.6c-20.7,-10.6 -41.3,-21.6 -61.7,-32.7c-5,-2.7 -7.3,-2.2 -10.1,2.9c-10.5,19.1 -21.3,38.1 -32.4,56.9c-2.9,4.9 -2.6,8.8 0,13.5c9.3,16.5 18.5,32.9 27.3,49.6c3.6,6.9 8.3,10 16.2,9.2c5.8,-0.6 43.6,-0.8 56.6,-1.2c1.9,-0.1 5.2,-2.7 5.4,-4.5c3.1,-25.4 5.8,-50.9 8.5,-76.4c1,-8.1 -2.4,-13.5 -9.8,-17.3z" class="st0 shell_4"/>
   <path animation="shell_draw 2000ms ease-in-out 0ms forwards, shell_fill 1000ms linear 2000ms forwards" stroke-dashoffset="367" stroke-miterlimit="10" stroke-linejoin="round" stroke-linecap="round" stroke-width="5" stroke="#ffffff" fill="#ffffff" id="svg_9" d="m277.8,214.7c-2.9,0.1 -6.8,3.6 -8.5,6.5c-10,17.1 -19.6,34.4 -28.9,51.9c-1.4,2.6 -2.2,7.1 -0.9,9.4c11.8,21.5 24.2,42.8 37.3,65.6c28.8,-41.9 50.3,-84.8 62.2,-133.8c-20.9,0.1 -41.1,-0.2 -61.2,0.4z" class="st0 shell_5"/>
   <path animation="shell_draw 2000ms ease-in-out 0ms forwards, shell_fill 1000ms linear 2000ms forwards" stroke-dashoffset="474" stroke-miterlimit="10" stroke-linejoin="round" stroke-linecap="round" stroke-width="5" stroke="#ffffff" fill="#ffffff" id="svg_10" d="m220.7,295.9c-2.5,-4.4 -5.6,-6 -10.5,-5.9c-10.1,0.1 -50.3,0.1 -60.3,0c-4.9,0 -8,1.5 -10.5,5.9c-12.4,22 -24.9,44 -37.6,65.8c-3,5.1 -2.2,8.5 1.5,12.7c19.8,22.8 41.4,43.8 65.4,62.3c4.6,3.5 8,5.3 11.4,5.3l0,0l0,0l0,0l0,0c3.4,0 6.8,-1.7 11.4,-5.3c24,-18.4 45.6,-39.4 65.4,-62.3c3.7,-4.3 4.5,-7.7 1.5,-12.7c-12.9,-21.8 -25.4,-43.8 -37.7,-65.8z" class="st0 shell_6"/>
  </g>
 </g>
</svg>